<svg xmlns="http://www.w3.org/2000/svg" height="512" viewBox="0 0 44 58" width="512"><g id="Page-1" fill="none" fill-rule="evenodd"><g id="015---Bald-Man" fill-rule="nonzero"><path id="Shape" d="m44 51v3.35c-.001606.9691401-.6961702 1.7984077-1.65 1.97-1.37.24-3.54.59-6.35.91-.63.06-1.3.13-2 .2-3.36.32-7.43.57-12 .57s-8.64-.25-12-.57c-.7-.07-1.37-.14-2-.2-2.81-.32-4.98-.67-6.35-.91-.95382978-.1715923-1.648394-1.0008599-1.65-1.97v-3.35c0-9.89 7.25-9.27 12.35-9.77.75 2.01 18.56 2 19.3 0 5.1.5 12.35-.12 12.35 9.77z" fill="#ecf0f1"></path><path id="Shape" d="m9.861 23.661c-3.805 1.558-6.624-2.691-5.671-6.061.09380939-.6311401.49349582-1.1751239 1.06776246-1.453253.57426664-.2781292 1.24888287-.2544522 1.80223754.063253z" fill="#f9c795"></path><path id="Shape" d="m36.94 16.21c.5533547-.3177052 1.2279709-.3413822 1.8022375-.063253.5742667.2781291.9739531.8221129 1.0677625 1.453253.881 3.106-1.452 6.963-4.8 6.323z" fill="#f9c795"></path><path id="Shape" d="m31.65 41.23c-.74 2-3.05 5.77-9.65 5.77s-8.9-3.76-9.65-5.77c.57-.06 1.11-.13 1.62-.23 1.3547963-.2418895 2.472283-1.1986418 2.92-2.5.2321765-.6138968.3801869-1.2563964.44-1.91h9.34c.0598131.6536036.2078235 1.2961032.44 1.91.447717 1.3013582 1.5652037 2.2581105 2.92 2.5.51.1 1.05.17 1.62.23z" fill="#fdd7ad"></path><path id="Shape" d="m27.11 38.5c-1.680821.3471537-3.3937666.5147609-5.11.5-1.7162334.0147609-3.429179-.1528463-5.11-.5.2321765-.6138968.3801869-1.2563964.44-1.91h9.34c.0598131.6536036.2078235 1.2961032.44 1.91z" fill="#f9c795"></path><path id="Shape" d="m35.91 24c-.1332441 2.0221211-.4376674 4.0293074-.91 6-1 4-5 7-13 7s-12-3-13-7c-.44361803-1.9716831-.73778689-3.974037-.88-5.99.47.03 27.37.02 27.79-.01z" fill="#35495e"></path><path id="Shape" d="m37 11v4c-.0756225 1.7505943-.2660316 3.4943401-.57 5.22-.1.57-.29 1.6-.39 2.11-.0381019.1979995-.0614991.3985471-.07.6-.01.3-.03.66-.06 1.07-1.7781276.2457155-3.466266.9333482-4.91 2-2.35 1.57-4-1-9-1s-6.65 2.57-9 1c-1.435124-1.0601567-3.11276137-1.7442752-4.88-1.99-.05-.51-.07-.92-.09-1.17-.01686844-.1780073-.04357595-.3549445-.08-.53-.14-.71-.26-1.42-.38-2.09-.30396845-1.7256599-.49437747-3.4694057-.57-5.22v-4c0-3 2-11 15-11s15 8 15 11z" fill="#fdd7ad"></path><path id="Shape" d="m10 51v6.43c-.7-.07-1.37-.14-2-.2v-6.23c0-.5522847.44771525-1 1-1s1 .4477153 1 1z" fill="#d1d4d1"></path><path id="Shape" d="m36 51v6.23c-.63.06-1.3.13-2 .2v-6.43c0-.5522847.4477153-1 1-1s1 .4477153 1 1z" fill="#d1d4d1"></path><path id="Shape" d="m22 31c-1.35546.0583036-2.6818413-.4043376-3.707-1.293-.3573625-.3924894-.3458038-.9958028.02633-1.374316.3721338-.3785133.9751636-.4003241 1.37367-.049684.658334.5075391 1.4769529.7619604 2.307.717.8279181.0438735 1.6440783-.2109104 2.3-.718.3989756-.3752273 1.0248131-.3623371 1.408.029.3840919.3884413.3818567 1.0143121-.005 1.4-1.0247414.8862508-2.3494387 1.3473728-3.703 1.289z" fill="#f9c795"></path><path id="Shape" d="m23 34h-2c-.5522847 0-1-.4477153-1-1s.4477153-1 1-1h2c.5522847 0 1 .4477153 1 1s-.4477153 1-1 1z" fill="#2c3e50"></path><path id="Shape" d="m23 23h-2c-.5522847 0-1-.4477153-1-1s.4477153-1 1-1h2c.5522847 0 1 .4477153 1 1s-.4477153 1-1 1z" fill="#f09372"></path><circle id="Oval" cx="15" cy="18" fill="#ecf0f1" r="3"></circle><circle id="Oval" cx="15.5" cy="18" fill="#35495e" r="1.5"></circle><circle id="Oval" cx="29" cy="18" fill="#ecf0f1" r="3"></circle><circle id="Oval" cx="28.5" cy="18" fill="#35495e" r="1.5"></circle><g fill="#2c3e50"><path id="Shape" d="m11 14c-.4015264-.0024592-.7626425-.2448476-.9170167-.6155201-.15437423-.3706725-.0720646-.7977347.2090167-1.0844799 2.1953684-2.0761972 5.4574877-2.55147284 8.154-1.188.4942949.2468713.6948713.8477051.448 1.342s-.8477051.6948713-1.342.448c-1.9279733-.980882-4.263106-.6551053-5.849.816-.1882903.1825449-.4407547.283818-.703.282z"></path><path id="Shape" d="m33 14c-.2623399-.0011046-.5137394-.1052558-.7-.29-1.5862509-1.4704945-3.9211795-1.7958436-5.849-.815-.4942948.2468713-1.0951287.0462948-1.342-.448-.2468712-.4942949-.0462948-1.0951287.448-1.342 2.6964121-1.36408716 5.958903-.8887574 8.154 1.188.2864278.2865085.37169.7175244.2159186 1.0915074-.1557715.373983-.5217944.6170295-.9269186.6154926z"></path></g></g></g></svg>