<svg xmlns="http://www.w3.org/2000/svg" height="511pt" viewBox="0 -3 511.99978 511" width="511pt"><path d="m256 100.257812-114.652344 43.652344-94.679687 25.1875s-60.308594 51.859375-14.078125 127.3125c1.621094 2.644532 5.210937 2.929688 7.023437.417969l10.457031-14.519531c2.558594-3.550782 7.964844-1.363282 7.570313 3.058594-1.773437 19.855468.261719 52.414062 26.183594 76.933593 1.847656 1.75 4.738281 1.484375 6.238281-.59375l9.652344-13.40625c2.496094-3.460937 7.808594-1.476562 7.585937 2.84375-.996093 19.441407 4.09375 51.777344 40.839844 79.328125 1.855469 1.390625 4.441406.96875 5.820313-.929687l16.128906-22.253907c2.253906-3.113281 6.988281-1.859374 7.535156 1.996094 2.882812 20.269532 16.460938 62.980469 78.375 90.433594 61.910156-27.453125 75.488281-70.164062 78.371094-90.433594.546875-3.855468 5.28125-5.109375 7.535156-1.996094l16.128906 22.253907c1.378906 1.894531 3.964844 2.320312 5.820313.929687 36.746093-27.550781 41.835937-59.886718 40.839843-79.328125-.222656-4.324219 5.089844-6.304687 7.585938-2.84375l9.652344 13.40625c1.5 2.082031 4.390625 2.34375 6.238281.59375 25.921875-24.519531 27.957031-57.078125 26.183594-76.933593-.394531-4.421876 5.011719-6.609376 7.570312-3.058594l10.460938 14.519531c1.808593 2.511719 5.398437 2.226563 7.019531-.417969 46.230469-75.453125-14.078125-127.3125-14.078125-127.3125l-94.679687-25.1875zm0 0" fill="#ff7f5a"></path><path d="m486.144531 196.816406c-9.140625-17.675781-20.8125-27.71875-20.8125-27.71875l-94.679687-25.1875-114.652344-43.652344-114.652344 43.652344-94.679687 25.1875s-11.675781 10.042969-20.8125 27.71875c18.019531 10.464844 42.933593 18.246094 77.386719 19.648438 2.484374.101562 5.007812.152344 7.496093.152344 51.269531 0 102.304688-21.816407 145.261719-61.785157 42.957031 39.964844 93.992188 61.78125 145.261719 61.785157h.011719c2.480468 0 5-.050782 7.488281-.152344 34.449219-1.402344 59.363281-9.183594 77.382812-19.648438zm0 0" fill="#ff5d29"></path><path d="m322.464844 137.296875c0-36.160156-29.757813-65.476563-66.464844-65.476563-36.710938 0-66.46875 29.316407-66.46875 65.476563s29.757812 65.472656 66.46875 65.472656c36.707031 0 66.464844-29.3125 66.464844-65.472656zm0 0" fill="#ffdcce"></path><path d="m322.464844 137.296875c0-36.164063-29.757813-65.476563-66.464844-65.476563-36.710938 0-66.46875 29.316407-66.46875 65.476563 0 20.007813 9.125 37.90625 23.480469 49.917969 14.972656-8.898438 29.386719-19.726563 42.988281-32.382813 13.597656 12.65625 28.011719 23.484375 42.984375 32.382813 14.359375-12.011719 23.480469-29.910156 23.480469-49.917969zm0 0" fill="#ffcabd"></path><path d="m477.519531 60.082031c-.023437-.011719-.050781-.03125-.089843-.054687-3.722657-2.25-8.53125.042968-9.234376 4.335937-2.597656 15.90625-9.335937 33.214844-25.71875 37.933594-23.160156 6.667969-38.644531-16.082031-50.316406-32.195313-13.324218-18.390624-26.164062-37.941406-45.75-50.304687-32.109375-20.261719-66.050781-14.03125-90.410156 14.988281-24.359375-29.019531-58.300781-35.253906-90.410156-14.988281-19.589844 12.363281-32.429688 31.917969-45.75 50.304687-11.671875 16.113282-27.15625 38.867188-50.316406 32.195313-16.382813-4.71875-23.121094-22.023437-25.71875-37.933594-.703126-4.292969-5.511719-6.585937-9.234376-4.335937-.039062.023437-.070312.042968-.089843.054687-27.007813 18.175781-34.210938 56.347657-19.40625 84.5625 16.636719 31.707031 56.554687 40.511719 89.386719 41.847657 55.054687 2.242187 104.640624-25.253907 141.734374-64.121094 5.355469-5.613282 14.25-5.613282 19.605469 0 37.097657 38.867187 86.679688 66.363281 141.738281 64.121094 32.828126-1.335938 72.75-10.140626 89.386719-41.847657 14.804688-28.214843 7.601563-66.386719-19.40625-84.5625zm0 0" fill="#ff7f5a"></path><path d="m503.566406 148.109375c8.097656-15.433594 10.464844-33.589844 6.664063-51.121094-3.921875-18.082031-14.050781-33.40625-28.449219-43.097656-.113281-.078125-.273438-.183594-.472656-.304687-8.179688-4.925782-18.984375.1875-20.511719 9.550781-2.039063 12.472656-7.230469 28.140625-20.394531 31.933593-11.175782 3.214844-21.277344-2.191406-33.792969-18.085937-2.5625-3.253906-7.277344-3.8125-10.53125-1.253906-3.253906 2.5625-3.816406 7.277343-1.253906 10.53125 6.589843 8.371093 24.097656 30.605469 49.726562 23.21875 15.910157-4.582031 26.492188-19.03125 30.6875-41.847657 21.417969 15.960938 28.226563 48.382813 15.046875 73.507813-15.644531 29.816406-54.46875 37.0625-85 37.886719-41.488281 1.117187-81.320312-16.183594-112.957031-42.226563-8.003906-6.585937-14.816406-14.386719-22.671875-21.117187-7.746094-6.644532-19.578125-6.636719-27.3125 0-4.296875 3.679687-7.984375 8.125-12.179688 11.941406-31.082031 28.253906-70.113281 49.425781-112.980468 51.3125-4.136719.183594-7.34375 3.683594-7.160156 7.820312.179687 4.140626 3.683593 7.355469 7.820312 7.164063 25.003906-1.101563 50.039062-8.1875 73.824219-20.617187 13.042969 22.675781 37.488281 36.941406 64.332031 36.941406 26.824219 0 51.25-14.242188 64.300781-36.886719 26.011719 13.601563 53.5 20.738281 81.050781 20.738281 22.160157 0 45.222657-3.308594 65.488282-12.65625 13.277344 15.507813 38.074218 54.683594 8.644531 106.832032 0 0-7.445313-10.335938-7.46875-10.371094-6.902344-9.578125-22.160156-3.457032-21.125 8.109375 1.734375 19.464843-.648437 46.722656-21.152344 68.117187 0 0-7.347656-10.199218-7.371093-10.234375-6.757813-9.378906-21.742188-3.773437-21.160157 7.613281.976563 19.023438-4.425781 46.515626-35.109375 70.832032 0 0-14.085937-19.433594-14.117187-19.476563-6.136719-8.46875-19.578125-4.867187-21.03125 5.347657-2.886719 20.285156-15.980469 57.753906-70.949219 83.25-54.96875-25.496094-68.0625-62.960938-70.949219-83.25-1.453125-10.222657-14.902343-13.800782-21.03125-5.347657l-14.117187 19.476563c-30.679688-24.3125-36.085938-51.808594-35.109375-70.832032.585937-11.40625-14.394531-17-21.160157-7.609374l-7.371093 10.234374c-20.5-21.398437-22.886719-48.652343-21.148438-68.121093 1.035157-11.589844-14.199219-17.726563-21.128906-8.109375l-7.46875 10.371094c-29.433594-52.152344-4.628906-91.328126 8.648437-106.835938 5.375 2.476562 11.226563 4.578125 17.488282 6.339844 8.089844 2.277344 16.382812 3.855468 24.722656 4.855468 3.753906.449219 7.378906-2.109374 8.21875-5.824218.960938-4.265625-2.09375-8.550782-6.425781-9.074219-25.472657-3.066406-54.742188-12.375-67.449219-36.59375-13.171875-25.101563-6.394531-57.480469 15.046875-73.503906 4.191406 22.816406 14.773437 37.265625 30.683594 41.847656 28.433593 8.183594 48.273437-20.777344 62.457031-40.550781 11.449219-15.957032 23.285156-32.460938 39.6875-42.8125 28.386719-17.917969 58.542969-12.886719 80.660156 13.464844 2.972656 3.539062 8.519532 3.539062 11.488282 0 22.121093-26.351563 52.277343-31.382813 80.664062-13.464844 14.605469 9.214844 25.597656 23.402344 34.753906 35.976562 2.4375 3.347656 7.128906 4.082032 10.476563 1.644532 3.347656-2.4375 4.085937-7.125 1.648437-10.476563-9.976562-13.695313-22.027344-29.199219-38.871094-39.832031-32.394531-20.441406-67.894531-16.371094-94.414062 10.222656-26.519531-26.59375-62.019531-30.664062-94.414062-10.21875-18.875 11.910156-31.578126 29.625-43.867188 46.753906-10.179688 14.191406-24.75 41.035156-46.121094 34.878906-13.164062-3.792968-18.355468-19.460937-20.394531-31.933593-1.523437-9.351563-12.34375-14.480469-20.503906-9.554688-.207031.125-.367188.230469-.40625.257813-14.472657 9.738281-24.605469 25.066406-28.523438 43.148437-3.800781 17.53125-1.433593 35.6875 6.664063 51.121094 5.367187 10.230469 13.269531 18.867187 23.476562 25.800781-6.964844 8.570313-15.515625 21.667969-20.410156 38.675782-8.285156 28.769531-3.339844 58.28125 14.695312 87.722656 4.3125 7.039062 14.625 7.648437 19.5.882812l3.988282-5.535156c-.003906 20.253906 4.980468 49.367188 28.988281 72.074219 5.078125 4.800781 13.398437 4 17.476563-1.660157l3.722656-5.167968c1.238281 20.140625 9.714844 50.015625 43.769531 75.550781 5.15625 3.863281 12.636719 2.648437 16.390625-2.53125l11.574219-15.964844c2.363281 10.5 7.179687 24.015625 16.898437 38.09375 14.484375 20.96875 36.167969 37.960938 64.457032 50.503907 1.773437.785156 4.113281.867187 6.078124 0 28.285157-12.542969 49.972657-29.535157 64.453126-50.503907 9.722656-14.078125 14.535156-27.59375 16.898437-38.097656 0 0 11.558594 15.945313 11.574219 15.96875 3.761718 5.1875 11.25 6.382813 16.390625 2.53125 34.058593-25.539063 42.535156-55.414063 43.773437-75.554687 0 0 3.722656 5.167968 3.722656 5.167968 4 5.550782 12.347657 6.511719 17.476563 1.660156 24.007813-22.707031 28.992187-51.816406 28.988281-72.070312 0 0 3.984375 5.527344 3.984375 5.53125 4.886719 6.78125 15.191407 6.15625 19.503907-.882812 18.035156-29.4375 22.980468-58.949219 14.695312-87.722657-4.886719-16.976562-13.414062-30.058593-20.371094-38.628906 10.164063-6.917969 18.039063-15.558594 23.4375-25.84375zm-247.566406 47.140625c-21.394531 0-40.867188-11.316406-51.269531-29.316406 13.773437-8.53125 26.933593-18.84375 39.292969-30.773438 2.585937-2.488281 5.121093-5.035156 7.597656-7.632812 2.367187-2.476563 6.394531-2.472656 8.753906 0 5.273438 5.523437 10.796875 10.796875 16.523438 15.84375 9.472656 8.355468 19.644531 15.890625 30.371093 22.5625-10.402343 18-29.875 29.316406-51.269531 29.316406zm0 0"></path></svg>