<svg xmlns="http://www.w3.org/2000/svg" id="Layer_1" height="512" viewBox="0 0 512 512" width="512"><g id="_x32_7_Beard"><g><path d="m489.519 327.452c-18.562 36.265-40.138 69.749-65.263 99.991-27.893 33.573-69.207 53.097-112.855 53.097h-110.822c-43.647 0-84.962-19.524-112.855-53.097-25.125-30.242-46.701-63.726-65.263-99.991-18.576-36.363-25.502-77.686-21.252-118.379l11.678-167.462c.834-11.961 17.557-14.013 21.23-2.6 18.315 56.897 39.913 126.347 66.434 152.69 3.908 3.882 10.069 4.041 14.43.675 82.972-64.046 197.761-65.082 282.017-.001 4.359 3.367 10.52 3.208 14.428-.673 26.522-26.343 48.12-95.793 66.435-152.691 3.673-11.413 20.397-9.362 21.23 2.6l11.678 167.463c4.251 40.692-2.675 82.015-21.25 118.378z" fill="#c17d61"></path><path d="m35.357 276.935c-4.543-18.217-6.257-37.367-5.014-56.848.282-4.422-2.864-8.311-7.273-8.752l-.027-.003c-4.554-.455-8.693 2.901-8.99 7.468-1.383 21.254.536 42.154 5.516 62.073.898 3.592 4.203 6.07 7.905 6.07 5.256-.001 9.155-4.91 7.883-10.008z" fill="#fff" opacity=".4"></path><path d="m489.495 327.437c-18.518 36.274-40.086 69.771-65.25 99.999-27.887 33.606-69.172 53.104-112.853 53.104h-51.851c43.627 0 84.967-19.498 112.853-53.104 25.109-30.228 46.677-63.725 65.251-99.999 18.573-36.328 25.49-77.668 21.242-118.354l-6.536-94.28c9.15-24.673 17.647-51.416 25.49-75.816 3.704-11.384 20.425-9.314 21.242 2.614l11.71 167.482c4.246 40.686-2.671 82.026-21.298 118.354z" opacity=".08"></path><path d="m347.489 240.741c0 16.481-13.279 29.76-29.666 29.76-7.95 0-25.929-8.804-43.804-16.92-11.457-5.201-24.605-5.202-36.063-.002-17.883 8.117-35.838 16.923-43.789 16.923-16.387 0-29.713-13.279-29.713-29.76 0-26.841 35.788-39.931 67.431-36.777 16.058 1.648 32.162 1.648 48.219 0 31.598-3.156 67.385 9.935 67.385 36.776z" fill="#f2f0f0"></path></g></g></svg>