<svg xmlns="http://www.w3.org/2000/svg" height="512" viewBox="0 0 128 128" width="512"><g><path d="m41.161 116.293 16.899-7.426-3.959-9.416z" fill="#d1d1fd"></path><path d="m53.413 21.13-16.049 8.47s-7.216 13.048-3.184 18.142c0 0-8.6 9.869-8.6 11.991s5.31 2.653 5.31 4.567-3.608 6.633.9 8.172c0 0-3.608 2.281-1.963 4.032a7.374 7.374 0 0 1 2.229 7.057c-.637 3.29 3.82 5.465 11.938 5.465s5.786 7.474 8.014 9.974 6.049 9.869 6.049 9.869l30.4-24.832v-9.71s13.955-23.506 13.955-37.832l-5.564-12.625z" fill="#ffd3bc"></path><path d="m53.413 21.13-16.049 8.47c43.828-3.28 57.62 16.722 57.673 32.056 3.617-7.813 7.379-17.72 7.379-25.158l-5.568-12.628z" fill="#ffbe9c"></path><path d="m80.41 51.109a9.393 9.393 0 0 0 -6.61 1.073 2 2 0 1 0 2.059 3.429 5.6 5.6 0 0 1 3.573-.625 3.745 3.745 0 0 1 2.268 1.914c1.114 1.883-2.436 7.91-6.979 10.623-1.262.752-2.905 1.426-3.56.342a2 2 0 0 0 -3.424 2.067 5.045 5.045 0 0 0 4.437 2.5 9.078 9.078 0 0 0 4.6-1.475c5.322-3.178 11.182-11.335 8.373-16.092a7.732 7.732 0 0 0 -4.737-3.756z" fill="#ffbe9c"></path><path d="m82.465 8.371 1.486 5.629s-24.408-18.894-53.167 5.407c0 0 1.168 7.429 6.58 10.188 0 0 19.278-.849 33.923-5.023s22.639 3.184 22.639 3.184c2.661 2.244 8.49 8.737 8.49 8.737 0-14.326-9.016-24.093-19.951-28.122z" fill="#e1966d"></path><path d="m88.463 84.035-30.4 24.832 5.937 12.133 27-27.9a4 4 0 0 0 .342-5.159z" fill="#ecebfd"></path></g></svg>