<svg xmlns="http://www.w3.org/2000/svg" id="Layer_1" height="512" viewBox="0 0 76 76" width="512"><g><path d="m25.22 53.67h-.01c-.53-.7-1.31-1.21-2.23-1.42-1.72-.39-3.43.42-4.26 1.87h-.01l-.22-4.84-.11-2.41c-.02-.38.02-.78.13-1.15l.06-.21.41-1.43 3.57-12.62c.17-.6.79-.96 1.39-.82.63.14 1.03.75.91 1.39l-1.99 9.72-.01.01-.64 3.13-.33 1.62-.16.79c-.01.03-.01.07-.01.1-.02.2.02.39.12.55z" fill="#eaeaea"></path><path d="m23.39 39.16-.53 2.59-.01.01-.41 1.99c-1.32.71-2.65 1.43-3.97 2.16.02-.07.02-.13.04-.19l.06-.21.41-1.43.5-1.77c.2.01.41-.06.6-.24 1.04-1.04 2.22-1.93 3.31-2.91z" fill="#dbd7d9"></path><path d="m18.69 53.57c.21-.38.41-.76.6-1.14.67-1.28 1.4-2.66 2.57-3.56.13-.1.27-.16.41-.19l-.43-.73c-.1-.16-.14-.35-.12-.55 0-.03 0-.07.01-.1l.16-.79.33-1.62.09-.45c-.49.41-.93.89-1.33 1.36-.47.55-.89 1.13-1.36 1.68-.23.28-.48.55-.75.8-.13.12-.27.22-.4.34l.03.66z" fill="#dbd7d9"></path><g><path d="m51.72 69.52-25.79-.35c5.92-7.58 6.31-12.58 4.39-16.58 0 0 3.8-2.6 5.25-5.81.95-2.12.12-7.51-.29-9.76-.19-1.06-.12-2.16.3-3.15.44-1.06 1.29-2.12 2.88-2.09 1.06.02 2.06.43 2.92.97 1.78 1.12 3.04 2.9 3.69 4.9.95 2.9 1.17 5.22.83 7.08-.2 1.03-.31 2.08-.19 3.13.33 2.9 1.14 8.38 2.72 9.9 1.45 1.4 4.29 2.89 7.43 3.97v.01c.02.24.29 4.02-4.14 7.78z" fill="#f6c09c"></path><path d="m43.66 63.93c-5.59-3.38-8.32-9.04-9.32-15.15-1.7 2.22-4.01 3.8-4.01 3.8 1.92 4 1.53 9-4.39 16.58l25.79.35c.77-.65 1.39-1.31 1.9-1.94-3.52-.68-6.93-1.8-9.97-3.64z" fill="#f4b596"></path><path d="m65.28 38.12c-.3.23-.43.61-.3.96 0 0-3.7 1.45-4.29 2.55-.33.62.1 1.87.38 3.01-.18-1.71 4.37-1.8 4.37-1.8s2.17.66.28 2.81c-.34.39-.73 1.17-.07 1.92 1.02 6.33-5.73 4.24-4.69-.79-2.22 1.54-8.27-2.15-9.91-4.29-1.32-1.72-1.13-4.78-2.91-9.45-.56-1.46-.74-3.05-.45-4.58.24-1.24.79-2.57 1.98-3.57 0 0-5.74 0-5.46-4.66.21-3.49 1.75-4.86 3.91-5.1 1.31-.15 2.65.17 3.81.81 3.58 1.95 6.46 5.12 7.95 9.07.33.87.58 1.78.7 2.69.16 1.2.77 2.3 1.68 3.11 1.13 1.01 2.67 2.34 3.98 3.34.91.7 1.05 1.98.27 2.83-.35.37-.76.77-1.23 1.14z" fill="#f6c09c"></path><path d="m60.96 46.78c-2.22 1.54-8.27-2.15-9.91-4.29-1.32-1.72-1.13-4.78-2.91-9.45-.56-1.46-.74-3.05-.45-4.58.24-1.24.79-2.57 1.98-3.57 0 0-5.74 0-5.46-4.66.16-2.7 1.13-4.12 2.55-4.74.42 1.4 1.27 2.64 1.99 3.92 1.08 1.89 1.32 3.91 1.48 6.05.27 3.6.74 7.12 1.89 10.55 1.08 3.25 2.65 6.41 5.4 8.55 2.38 1.85 5.22 2.86 8.16 3.31.74 5.94-5.74 3.85-4.72-1.09z" fill="#f4b596"></path><path d="m65.44 42.84s-4.55.09-4.37 1.8c-.28-1.14-.71-2.39-.38-3.01.59-1.1 4.29-2.55 4.29-2.55.15.47.45 1.1.99 1.53.45.35 1.61.92-.53 2.23z" fill="#3d3935"></path><path d="m68.92 61.94c-2.3 2.24-8.07 1.52-13.06-.2v-.01c-3.14-1.08-5.98-2.57-7.43-3.97-1.58-1.52-2.39-7-2.72-9.9-.12-1.05-.01-2.1.19-3.13.34-1.86.12-4.18-.83-7.08-.65-2-1.91-3.78-3.69-4.9-.86-.54-1.86-.95-2.92-.97-1.59-.03-2.44 1.03-2.88 2.09-.42.99-.49 2.09-.3 3.15.41 2.25 1.24 7.64.29 9.76-1.45 3.21-5.25 5.81-5.25 5.81-.09-.17-.18-.34-.27-.51-.46-.84-1.02-1.65-1.65-2.44-.15-.19-.3-.37-.47-.56-1.15-1.37-2.52-2.68-3.96-3.97l-4.1-4.18c-1.62-1.95-2.88-4.11-3.27-6.71-1.92-12.86 7.77-20.5 16.02-22.26 8.25-1.77 11.2-5.31 16.34-5.47s4.21 10.19 4.21 10.19l-1.24-.74c-1.16-.64-2.5-.96-3.81-.81-2.16.24-3.7 1.61-3.91 5.1-.28 4.66 5.46 4.66 5.46 4.66-1.19 1-1.74 2.33-1.98 3.57-.29 1.53-.11 3.12.45 4.58 1.78 4.67 1.59 7.73 2.91 9.45 1.64 2.14 7.69 5.83 9.91 4.29-1.04 5.03 5.71 7.12 4.69.79.11.12.25.25.42.37.28.19.49.47.62.79.96 2.31 4.39 11.09 2.23 13.21z" fill="#494643"></path><g fill="#3d3935"><path d="m48.14 47.15c-.78-.91-1.49-1.86-2.17-2.84-.02.14-.03.28-.06.41-.2 1.03-.31 2.08-.19 3.13.33 2.9 1.14 8.38 2.72 9.9 1.45 1.4 4.29 2.89 7.43 3.97v.01c4.99 1.72 10.76 2.44 13.06.2.42-.41.62-1.07.68-1.88-8.19-2.28-15.78-6.26-21.47-12.9z"></path><path d="m30.54 35.68c-2.42-6.16 8.18-19.87 9.24-26.07l-10.54 3.38c-7.27 2.88-14.3 10.1-12.64 21.23.39 2.6 1.65 4.76 3.27 6.71l4.1 4.18c1.44 1.29 2.81 2.6 3.96 3.97.17.19.32.37.47.56.63.79 1.19 1.6 1.65 2.44.09.17.18.34.27.51 0 0 3.8-2.6 5.25-5.81.33-.73.44-1.84.44-3.08-2.32-2.34-4.28-4.99-5.47-8.02z"></path></g></g><g><path d="m32.45 35.84c0 .29-.12.59-.34.82l-10.27 10.66c0 .01-.05.04-.13.08-.63.38-3.22 1.88-3.22 1.88l-4.01 2.1c.82-1.45.66-3.34-.54-4.63-.64-.7-1.48-1.11-2.35-1.22l6.9.05.08-.07 4.28-3.75.01-.01 7.62-6.79c.48-.43 1.21-.39 1.65.08.21.23.32.51.32.8z" fill="#eaeaea"></path></g><ellipse cx="20.38" cy="46.21" fill="#3d3935" rx="1.9" ry="1.9" transform="matrix(.228 -.974 .974 .228 -29.261 55.525)"></ellipse><g><g><path d="m22.13 60.77c-.34 0-.68-.04-1.02-.11-2.52-.56-4.12-3.07-3.56-5.59.27-1.22 1-2.26 2.06-2.94 1.06-.67 2.31-.89 3.53-.62 2.52.56 4.11 3.07 3.55 5.6-.48 2.17-2.42 3.66-4.56 3.66zm-.7-1.58c1.71.38 3.42-.7 3.8-2.41.38-1.72-.7-3.42-2.41-3.81-.83-.19-1.68-.03-2.4.42-.72.46-1.22 1.17-1.4 2-.39 1.71.7 3.42 2.41 3.8z" fill="#3d3935"></path></g><g><path d="m11.07 54.1c-.06 0-.13 0-.19 0-1.25-.05-2.41-.58-3.26-1.5-1.75-1.9-1.64-4.86.26-6.62s4.87-1.64 6.62.25c1.76 1.9 1.64 4.87-.26 6.63-.87.81-1.99 1.24-3.17 1.24zm-2.35-2.52c.58.62 1.36.99 2.22 1.02.85.03 1.66-.27 2.29-.84 1.29-1.19 1.37-3.22.17-4.51-1.19-1.29-3.21-1.36-4.5-.17-1.29 1.2-1.37 3.21-.18 4.5z" fill="#3d3935"></path></g></g></g></svg>