<svg xmlns="http://www.w3.org/2000/svg" id="Capa_1" height="512" viewBox="0 0 512 512" width="512"><path d="m354.14 101.672-.325-.384-.391.317c-13.298 10.785-31.118 14.948-47.673 11.131-11.038-2.542-22.35-2.781-33.619-.711-12.66 2.331-24.78-1.62-36.5-5.438-19.83-6.459-40.334-13.14-63.334 11.045-6.388 6.718-14.687 9.689-23.994 8.596l-.497-.059-.072.495c-.604 4.129-.911 8.582-.911 13.237v108.814l.655-.187c.873-.248 1.942.091 2.302 1.218 3.357 10.542 6.84 17.951 10.353 22.024 2.241 2.598 3.648 6.033 3.962 9.674.328 3.811.889 7.726 1.67 11.649-2.135-.398-4.269-.953-6.355-1.653-1.576-.53-3.217.006-4.184 1.362-.981 1.376-.95 3.131.079 4.468 4.633 6.022 9.96 10.754 15.836 14.068 6.14 15.345 15.573 27.58 28.037 36.366 13.381 9.432 24.586 12.532 33.537 12.532 6.212-.001 11.34-1.495 15.352-3.401 4.939-2.346 10.604-2.346 15.542 0 9.792 4.655 26.222 6.847 48.889-9.131 12.4-8.741 21.801-20.896 27.943-36.132 6.04-3.325 11.51-8.143 16.261-14.323 1.022-1.33 1.05-3.074.072-4.444-.97-1.359-2.615-1.897-4.188-1.366-2.203.74-4.448 1.317-6.685 1.717.786-3.938 1.352-7.874 1.682-11.711.314-3.64 1.721-7.076 3.962-9.674 3.513-4.072 6.996-11.482 10.353-22.024.168-.53.503-.92.966-1.129.487-.218 1.083-.217 1.591.007l.722.318v-109.043c-.001-20.824-6.003-32.282-11.038-38.228z" fill="#fed2a4"></path><path d="m190.982 264.971v-161.035c-6.061 2.618-12.276 6.956-18.685 13.695-6.388 6.718-14.687 9.689-23.994 8.596l-.497-.059-.072.495c-.604 4.129-.911 8.582-.911 13.237v108.814l.655-.187c.873-.248 1.942.091 2.302 1.218 3.357 10.542 6.84 17.951 10.353 22.024 2.241 2.598 3.648 6.033 3.962 9.674.328 3.811.889 7.726 1.67 11.649-2.135-.398-4.269-.953-6.355-1.653-1.576-.53-3.217.006-4.184 1.362-.981 1.376-.95 3.131.079 4.468 4.633 6.022 9.96 10.754 15.836 14.068 6.14 15.345 15.573 27.58 28.037 36.366 11.181 7.882 20.837 11.332 28.934 12.256-23.025-25.081-37.13-58.466-37.13-94.988z" fill="#ffbd86"></path><path d="m449.88 448.898c-18.17-7.068-47.481-18.354-95.829-37.055l-.519 1.462c-17.649 37.896-55.752 62.289-97.532 62.289-41.799 0-79.91-24.41-97.551-62.329l-.653-1.41c-48.309 18.706-77.561 29.975-95.689 37.033-21.053 8.198-34.911 28.471-34.911 51.063v.014c0 6.646 5.388 12.034 12.034 12.034h433.54c6.646 0 12.034-5.388 12.034-12.034-.001-22.595-13.865-42.875-34.924-51.067z" fill="#fee55a"></path><path d="m84.83 495.288v-.021c0-25.015 7.818-48.1 20.628-63.165-19.047 7.363-33.012 12.762-43.351 16.787-21.053 8.198-34.911 28.471-34.911 51.063v.014c0 6.646 5.388 12.034 12.034 12.034h53.626c-4.672-2.436-8.026-8.989-8.026-16.712z" fill="#ffd301"></path><path d="m156.365 412.416c17.035 38.099 55.275 64.721 99.635 64.721 44.344 0 82.573-26.604 99.616-64.68l-32.414-12.553c-11.956 25.124-37.576 42.538-67.202 42.538-29.644 0-55.275-17.434-67.222-42.581-1.075.455-2.07.793-2.821 1.084v-.001z" fill="#fff1af"></path><g fill="#544e55"><path d="m374.387 70.657c-2.049 7.087-5.699 13.856-10.058 20.041-3.033 4.303-6.609 8.085-10.581 11.306 5.26 6.211 10.915 17.603 10.915 37.896v66.842c0 5.456 7.394 6.826 9.186 1.709 4.733-13.519 11.274-30.091 19.474-45.896 10.004-19.285 26.483-77.62-18.936-91.898z"></path><path d="m110.266 96.614c-7.783 22.937 1.749 53.098 8.412 65.94 8.199 15.805 14.741 32.378 19.474 45.896 1.792 5.117 9.186 3.747 9.186-1.709v-66.841c0-4.89.333-9.254.905-13.163-14.677-1.726-29.817-13.357-37.977-30.123z"></path><path d="m378.382 341.021c-5.019-26.603-10.673-61.446-12.335-90.833-.149-2.637-3.838-3.115-4.639-.598-2.535 7.959-6.087 17.014-10.252 21.843-2.398 2.781-3.769 6.307-4.085 9.966-.282 3.275-.822 7.539-1.824 12.388 2.765-.447 5.289-1.119 7.503-1.862 2.991-1.004 5.466 2.508 3.544 5.009-4.997 6.501-10.492 11.129-16.261 14.274-5.041 12.572-13.526 25.99-27.831 36.074-22.944 16.173-39.37 13.364-48.371 9.086-5.067-2.408-10.916-2.408-15.983 0-9.001 4.278-25.427 7.087-48.371-9.086-14.393-10.146-22.894-23.667-27.923-36.305-5.614-3.136-10.964-7.685-15.838-14.022-1.931-2.511.529-6.037 3.532-5.029 2.125.713 4.539 1.358 7.173 1.805-.995-4.826-1.531-9.069-1.812-12.332-.315-3.659-1.686-7.185-4.085-9.966-4.165-4.829-7.717-13.884-10.252-21.843-.802-2.517-4.49-2.039-4.639.598-1.662 29.387-7.316 64.23-12.335 90.833-.367 1.944-.673 3.946-.933 5.986.678 7.553 1.553 14.286 2.305 19.364.507 3.422 4.71 4.759 7.129 2.287 1.219-1.246 2.455-2.349 3.607-3.294 2.406-1.973 6.046-.674 6.708 2.367 6.322 29.038 19.259 48.998 27.122 59.021 2.254 2.874 6.859 1.658 7.41-1.952.012-.076.023-.151.035-.227.509-3.292 4.476-4.684 6.938-2.44 22.213 20.246 55.302 28.672 61.279 30.067.625.146 1.26.146 1.885 0 5.977-1.395 39.066-9.821 61.279-30.067 2.462-2.244 6.429-.852 6.938 2.44.012.075.023.151.035.227.551 3.61 5.156 4.826 7.41 1.952 7.863-10.023 20.8-29.982 27.122-59.021.662-3.04 4.302-4.34 6.708-2.367 1.152.945 2.388 2.048 3.607 3.294 2.419 2.473 6.622 1.135 7.129-2.287.752-5.078 1.628-11.811 2.305-19.363-.261-2.041-.568-4.044-.934-5.987z"></path></g><path d="m378.382 341.021c-5.019-26.603-10.673-61.446-12.335-90.833-.149-2.637-3.838-3.115-4.639-.598-2.535 7.959-6.087 17.014-10.252 21.843-2.398 2.781-3.769 6.307-4.085 9.966-.282 3.275-.822 7.539-1.824 12.388 2.765-.447 5.289-1.119 7.503-1.862 2.991-1.004 5.466 2.508 3.544 5.009-4.997 6.501-10.492 11.129-16.261 14.274-5.041 12.572-13.526 25.99-27.831 36.074-22.944 16.173-39.37 13.364-48.371 9.086-5.067-2.408-10.916-2.408-15.983 0-9.001 4.278-25.427 7.087-48.371-9.086-14.393-10.146-22.894-23.667-27.923-36.305-5.614-3.136-10.964-7.685-15.838-14.022-1.931-2.511.529-6.037 3.532-5.029 2.125.713 4.539 1.358 7.173 1.805-.995-4.826-1.531-9.069-1.812-12.332-.315-3.659-1.686-7.185-4.085-9.966-4.165-4.829-7.717-13.884-10.252-21.843-.802-2.517-4.49-2.039-4.639.598-1.662 29.387-7.316 64.23-12.335 90.833-.367 1.944-.673 3.946-.933 5.986.678 7.553 1.553 14.286 2.305 19.364.507 3.422 4.71 4.759 7.129 2.287 1.219-1.246 2.455-2.349 3.607-3.294 2.406-1.973 6.046-.674 6.708 2.367 6.322 29.038 19.259 48.998 27.122 59.021 2.254 2.874 6.859 1.658 7.41-1.952.012-.076.023-.151.035-.227.509-3.292 4.476-4.684 6.938-2.44 22.213 20.246 55.302 28.672 61.279 30.067.625.146 1.26.146 1.885 0 5.977-1.395 39.066-9.821 61.279-30.067 2.462-2.244 6.429-.852 6.938 2.44.012.075.023.151.035.227.551 3.61 5.156 4.826 7.41 1.952 7.863-10.023 20.8-29.982 27.122-59.021.662-3.04 4.302-4.34 6.708-2.367 1.152.945 2.388 2.048 3.607 3.294 2.419 2.473 6.622 1.135 7.129-2.287.752-5.078 1.628-11.811 2.305-19.363-.261-2.041-.568-4.044-.934-5.987z" fill="#685e68"></path><path d="m193.617 422.131c15.904 14.496 37.381 22.931 50.492 27.066-34.518-37.912-20.841-80.037-16.915-89.905-7.766-1.067-17.035-4.48-27.719-12.011-14.393-10.146-22.894-23.667-27.923-36.305-5.614-3.136-10.964-7.685-15.838-14.022-1.931-2.511.529-6.037 3.532-5.029 2.125.713 4.539 1.358 7.173 1.805-.995-4.826-1.531-9.069-1.812-12.332-.315-3.659-1.686-7.185-4.085-9.966-4.165-4.829-7.717-13.884-10.252-21.843-.802-2.517-4.49-2.039-4.639.598-1.662 29.387-7.316 64.23-12.335 90.833-.367 1.944-.673 3.946-.933 5.986.678 7.553 1.553 14.286 2.305 19.364.507 3.422 4.71 4.759 7.129 2.287 1.219-1.246 2.455-2.349 3.607-3.294 2.406-1.973 6.046-.674 6.708 2.367 6.322 29.038 19.259 48.998 27.122 59.021 2.254 2.874 6.859 1.658 7.41-1.952.012-.076.023-.151.035-.227.509-3.293 4.476-4.685 6.938-2.441z" fill="#544e55"></path><path d="m352.749 291.924c-8.873 2.979-22.728 4.806-37.067-4.319-15.208-9.678-25.946-21.536-37.923-24.845-6.796-1.878-13.533.327-18.028 4.872-2.039 2.062-5.433 2.062-7.472 0-4.494-4.545-11.232-6.749-18.028-4.872-11.977 3.309-22.715 15.168-37.923 24.845-14.337 9.124-28.19 7.298-37.063 4.32-3.003-1.008-5.463 2.518-3.532 5.029 29.243 38.014 75.529 11.997 93.981-.863.881-.615 1.7-1.298 2.45-2.041 2.116-2.096 5.584-2.096 7.701 0 .75.743 1.568 1.426 2.45 2.041 18.456 12.863 64.755 38.886 93.997.842 1.924-2.501-.552-6.013-3.543-5.009z" fill="#685e68"></path><path d="m352.749 291.924c-3.711 1.246-8.296 2.287-13.421 2.413-27.863 14.555-61.858-4.909-77.032-15.484-.882-.614-1.7-1.298-2.45-2.041-2.116-2.095-5.585-2.095-7.701 0-.75.743-1.568 1.426-2.45 2.041-15.174 10.576-49.17 30.04-77.033 15.484-5.123-.126-9.707-1.166-13.417-2.411-3.003-1.008-5.463 2.518-3.532 5.029 29.243 38.014 75.529 11.997 93.981-.863.881-.614 1.7-1.298 2.45-2.041 2.116-2.096 5.584-2.096 7.701 0 .75.743 1.568 1.426 2.45 2.041 18.456 12.863 64.755 38.886 93.997.842 1.924-2.502-.552-6.014-3.543-5.01z" fill="#544e55"></path><path d="m356.315 22.431c-21.747-17.248-43.92-24.43-67.787-21.956-33.838 3.507-65.771 25.266-99.447 36.491-32.637 10.879-46.422.509-52.24-10.106-3.418-6.236-12.066-6.595-16.373-1.143-26.53 33.59-18.872 70.508 3.954 90.301 13.898 12.051 34.298 17.385 48.621 2.323 22.553-23.714 41.845-17.43 62.269-10.776 11.843 3.859 24.091 7.847 37.005 5.474 11.13-2.048 22.302-1.812 33.202.701 22.573 5.202 45.825-3.725 59.23-22.744 12.762-18.108 21.657-44.699-8.434-68.565z" fill="#685e68"></path><path d="m167.561 94.405c-15.261-13.233-23.722-34.122-19.739-56.552-5.273-2.817-8.728-6.884-10.98-10.994-3.418-6.236-12.066-6.595-16.373-1.143-26.53 33.59-18.872 70.508 3.954 90.301 13.898 12.051 34.298 17.385 48.621 2.323 5.817-6.116 11.415-10.225 16.874-12.858-8.017-1.32-15.891-5.469-22.357-11.077z" fill="#544e55"></path><path d="m332.076 113.496c6.68-1.677 13.018-4.568 18.701-8.552 5.584-22.529 3.263-40.751-6.983-54.211-17.517-23.011-51.227-22.333-52.652-22.29-4.261.121-7.618 3.672-7.498 7.933s3.667 7.628 7.933 7.499c.268-.014 27.161-.568 39.933 16.209 8.079 10.613 8.967 26.476 2.639 47.151z" fill="#7a6d79"></path><path d="m298.578 110.108-.983 2.218c2.654.341 5.297.807 7.924 1.413 2.614.602 5.237 1.007 7.852 1.237 6.481-13.521 7.407-25.539 2.715-35.736-7.259-15.776-25.255-20.272-26.003-20.452-.983-.239-24.335-5.727-46.938 4.883-3.859 1.811-5.519 6.408-3.707 10.267s6.408 5.519 10.267 3.708c17.561-8.243 36.567-3.896 36.708-3.861.116.029 11.624 3.029 15.687 11.99 2.773 6.118 1.65 14.177-3.34 23.955-.064.123-.125.25-.182.378z" fill="#7a6d79"></path></svg>