<svg xmlns="http://www.w3.org/2000/svg" height="512pt" viewBox="0 0 512 512" width="512pt"><path d="m512 256c0 141.386719-114.613281 256-256 256s-256-114.613281-256-256 114.613281-256 256-256 256 114.613281 256 256zm0 0" fill="#ffbc00"></path><path d="m511.738281 267.304688-182.460937-182.460938-30.109375 42.644531-85.285157-85.28125-39.601562 76.105469 38.738281 38.738281-58.214843 54.144531 64.179687 64.175782-36.261719 78.507812 71.644532 71.644532-56.234376 31.109374 55.332032 55.335938c.847656.007812 1.6875.03125 2.535156.03125 137.597656 0 249.820312-108.558594 255.738281-244.695312zm0 0" fill="#ff9700"></path><path d="m312.742188 327.414062h-113.484376l-30.0625-147.113281h173.609376zm0 0" fill="#e9edf5"></path><path d="m342.804688 180.300781h-87.210938v147.113281h57.148438zm0 0" fill="#cdd2e1"></path><path d="m198.132812 336.917969h115.734376v119.714843h-115.734376zm0 0" fill="#4a7aff"></path><path d="m255.59375 336.917969h58.273438v119.714843h-58.273438zm0 0" fill="#0053bf"></path><path d="m182.722656 303.171875h146.554688v50.710937h-146.554688zm0 0" fill="#4a98f7"></path><path d="m255.59375 303.171875h73.683594v50.710937h-73.683594zm0 0" fill="#2864f0"></path><path d="m328.390625 130.878906h-7.058594c10.089844-4.058594 17.21875-13.929687 17.21875-25.472656 0-15.160156-12.289062-27.445312-27.449219-27.445312h-52.917968c-21.746094 0-39.90625-15.320313-44.300782-35.753907h-5.402343c-24.695313 0-45.574219 19.363281-46.25 44.050781-.574219 20.972657 13.109375 38.835938 32.058593 44.621094h-10.679687c-25.03125 0-45.324219 20.289063-45.324219 45.320313 0 25.035156 20.292969 45.324219 45.324219 45.324219h144.78125c25.03125 0 45.324219-20.289063 45.324219-45.324219 0-25.03125-20.292969-45.320313-45.324219-45.320313zm0 0" fill="#fff"></path><path d="m328.390625 130.878906h-7.058594c10.089844-4.058594 17.21875-13.929687 17.21875-25.472656 0-15.160156-12.289062-27.445312-27.449219-27.445312h-52.917968c-.867188 0-1.730469-.035157-2.589844-.082032v143.644532h72.796875c25.03125 0 45.324219-20.292969 45.324219-45.324219s-20.292969-45.320313-45.324219-45.320313zm0 0" fill="#e1fffa"></path></svg>