<svg xmlns="http://www.w3.org/2000/svg" id="Icons" height="512" viewBox="0 0 60 60" width="512"><path d="m42.79 33.05c.292-1.459.21-1.124.21-17.5l-3.62.43c-.75 2.75-2.96 7.47-7.69 8.2a2.513 2.513 0 0 1 -2.59-1.36l-.37-.73a1.951 1.951 0 0 0 -1.75-1.09h-3.95a1.96 1.96 0 0 0 -1.75 1.08l-.37.74a2.513 2.513 0 0 1 -2.59 1.36c-4.73-.73-6.94-5.45-7.69-8.2l-3.62-.43v15.34a10.834 10.834 0 0 0 3.21 7.74 61.208 61.208 0 0 0 10.27 8.14z" fill="#805333"></path><path d="m47.931 8.928a.642.642 0 0 1 1.062.57c-.67 4.529-4.037 6.5-10.686 6.5-6.428 0-10.443-2.077-12.482-4.665a1.045 1.045 0 0 0 -1.65 0c-2.039 2.59-6.054 4.667-12.482 4.667-6.649 0-10.016-1.973-10.686-6.5a.642.642 0 0 1 1.062-.57 7.22 7.22 0 0 0 4.631 2.07c6.657 0 6.657-10 13.31-10a6.073 6.073 0 0 1 4.007 1.222 1.56 1.56 0 0 0 1.966 0 6.073 6.073 0 0 1 4.007-1.222c6.653 0 6.653 10 13.31 10a7.22 7.22 0 0 0 4.631-2.072z" fill="#a56a43"></path><path d="m58.91 51.969a5.994 5.994 0 0 0 -9.31-3.91l-6.86-4.57c-.916-.61-1.109-1.409-1.54-2.49l-4.5 4.21 10.46 6.43a6 6 0 1 0 11.75.33zm-5.91 3.031a2 2 0 1 1 2-2 2 2 0 0 1 -2 2z" fill="#547580"></path><path d="m51 23.323a5.994 5.994 0 0 0 -3.84 7.037l-33.704 20.74a.942.942 0 0 0 .175 1.691 6.836 6.836 0 0 0 4.709-.145l20.6-8.35a2.882 2.882 0 0 0 1.57-1.59c1.173-2.922 1.278-3.565 2.23-4.2l6.86-4.57a6.006 6.006 0 1 0 1.4-10.613zm2 7.677a2 2 0 1 1 2-2 2 2 0 0 1 -2 2z" fill="#84b5cb"></path><circle cx="37" cy="41" fill="#547580" r="1"></circle></svg>