<svg xmlns="http://www.w3.org/2000/svg" xmlns:xlink="http://www.w3.org/1999/xlink" xmlns:serif="http://www.serif.com/" clip-rule="evenodd" fill-rule="evenodd" stroke-linejoin="round" stroke-miterlimit="2" viewBox="0 0 356 356"><linearGradient id="_Linear1" gradientTransform="matrix(159.059 224.127 -224.127 159.059 92.956 70.925)" gradientUnits="userSpaceOnUse" x1="0" x2="1" y1="0" y2="0"><stop offset="0" stop-color="#fed29d"></stop><stop offset="1" stop-color="#f4bd7a"></stop></linearGradient><linearGradient id="lg1"><stop offset="0" stop-color="#ffd541"></stop><stop offset="1" stop-color="#ffa501"></stop></linearGradient><linearGradient id="_Linear2" gradientUnits="userSpaceOnUse" x1="258.497" x2="337.547" xlink:href="#lg1" y1="148.783" y2="148.783"></linearGradient><linearGradient id="_Linear3" gradientUnits="userSpaceOnUse" x1="18.009" x2="97.059" xlink:href="#lg1" y1="85.557" y2="85.557"></linearGradient><g id="Exp.-4.-S"><g><path d="m131.433 30.782c-6.94 26.228-17.587 86.228-14.4 165.77-32.247 25.229-56.178 39.572-57.278 71.535-1.493 43.401 39.466 44.273 62.054 45.156 9.857.386 31.818 9.655 50.101 8.94 18.284.715 40.244-8.554 50.102-8.94 22.587-.883 63.546-1.755 62.053-45.156-1.099-31.963-25.03-46.306-57.277-71.535 3.186-79.542-7.46-139.542-14.401-165.77-6.94-26.228-74.013-26.228-80.954 0z" fill="url(#_Linear1)"></path><path d="m172.778 11.116-.868-.005c14.091 0 28.182 6.557 30.825 19.671 5.286 26.228 13.393 86.228 10.967 165.77 19.255 19.782 54.838 41.617 69.864 65.532-3.737-27.865-26.621-41.938-56.778-65.532 3.186-79.542-7.46-139.542-14.401-165.77-3.416-12.909-21.4-19.465-39.609-19.666z" fill="#f2b474"></path><path d="m169.932 11.289 1.978-.178-.66.005-1.318.173c-17.827.299-35.152 6.847-38.499 19.493-6.94 26.228-17.587 86.228-14.4 165.77-30.157 23.594-53.042 37.667-56.779 65.532 15.027-23.915 50.61-45.75 69.865-65.532-2.427-79.542 5.681-139.542 10.967-165.77 2.518-12.499 15.437-19.041 28.846-19.493z" fill="#fee0bb"></path><path d="m92.077 276.309c11.662-4.924 19.359-1.647 26.521 2.199 6.133 3.293 12.004 6.879 18.81 8.195 3.01.582 5.927-1.389 6.509-4.4.582-3.01-1.39-5.927-4.4-6.509-7.384-1.428-13.367-6.229-20.278-9.391-8.526-3.901-18.116-5.974-31.484-.331-2.825 1.193-4.15 4.455-2.957 7.279 1.192 2.825 4.454 4.15 7.279 2.958z" fill="#df8d4b"></path><path d="m256.065 266.072c-15.781-6.662-26.646-3.805-36.425 1.12-5.598 2.819-10.774 6.448-16.516 8.97-2.807 1.233-4.085 4.513-2.852 7.321 1.233 2.807 4.513 4.085 7.32 2.852 5.921-2.6 11.273-6.313 17.046-9.22 7.276-3.665 15.363-5.764 27.106-.806 2.825 1.192 6.086-.133 7.279-2.958 1.192-2.824-.133-6.086-2.958-7.279z" fill="#df8d4b"></path><path d="m298.022 109.259 10.675 28.849 28.85 10.675-28.85 10.676-10.675 28.849-10.675-28.849-28.85-10.676 28.85-10.675z" fill="url(#_Linear2)"></path><path d="m57.533 46.032 10.676 28.849 28.849 10.675-28.849 10.676-10.676 28.849-10.675-28.849-28.849-10.676 28.849-10.675z" fill="url(#_Linear3)"></path></g></g></svg>