<svg xmlns="http://www.w3.org/2000/svg" id="Capa_1" height="512" viewBox="0 0 512 512" width="512"><path d="m369.745 0h-36.056c-8.534 0-15.453 6.918-15.453 15.453v60.781h66.962v-60.781c0-8.535-6.918-15.453-15.453-15.453z" fill="#d2f1ff"></path><path d="m385.195 15.453v50.479h-30.905v-50.479c0-8.53-6.912-15.453-15.453-15.453h30.905c8.54 0 15.453 6.923 15.453 15.453z" fill="#9cdbef"></path><path d="m395.5 65.932h-87.565c-5.69 0-10.302 4.612-10.302 10.302v30.905h108.169v-30.906c0-5.689-4.613-10.301-10.302-10.301z" fill="#e0e0e0"></path><path d="m405.799 76.233v20.604h-30.905v-20.604c0-5.687-4.605-10.302-10.302-10.302h30.905c5.697.001 10.302 4.616 10.302 10.302z" fill="#bfbfbf"></path><path d="m481.18 512h-277.294l57.33-186.131-.428-141.465 11.502-66.22c2.143-12.339 12.851-21.347 25.375-21.347h108.103c12.523 0 23.231 9.008 25.375 21.347l11.502 66.219-13.604 117.424 55.297 122.608 12.066 69.468c1.642 9.45-5.632 18.097-15.224 18.097z" fill="#9ae29c"></path><path d="m481.177 512h-30.905c9.591 0 16.874-8.643 15.226-18.1l-65.262-375.717c-.721-4.121-2.39-7.881-4.77-11.044-4.728-6.305-12.249-10.291-20.573-10.302h30.905c12.517.01 23.2 9.014 25.343 21.345l11.503 66.221-1.818 121.947 43.511 118.085 12.066 69.465c1.648 9.457-5.635 18.1-15.226 18.1z" fill="#75cc75"></path><path d="m481.177 512h-277.294l5.367-30.905h284.927l2.225 12.805c1.649 9.457-5.634 18.1-15.225 18.1z" fill="#e0e0e0"></path><path d="m481.177 512h-26.96v-30.905h39.961l2.225 12.805c1.648 9.457-5.635 18.1-15.226 18.1z" fill="#bfbfbf"></path><path d="m481.177 512h-26.96v-.505c7.541-1.978 12.692-9.488 11.281-17.596l-2.225-12.805h30.905l2.225 12.805c1.648 9.458-5.635 18.101-15.226 18.101z" fill="#a8a8a8"></path><path d="m382.104 481.095h36.056v30.905h-36.056z" fill="#bfbfbf"></path><path d="m484.34 424.435h-265.251l41.691-240.033h181.868z" fill="#ebfbff"></path><path d="m484.34 424.435h-30.906l-41.691-240.033h30.905z" fill="#d2f1ff"></path><path d="m360.474 356.443h-17.513c-19.913 0-36.056-16.143-36.056-36.056v-31.936c0-19.913 16.143-36.056 36.056-36.056h17.513c19.913 0 36.056 16.143 36.056 36.056v31.936c0 19.913-16.143 36.056-36.056 36.056z" fill="#d2f1ff"></path><path d="m261.576 263.726h-157.617c-11.379 0-20.604 9.225-20.604 20.604 0 11.379 9.225 20.604 20.604 20.604l78.809 10.302 78.809-10.302c11.379 0 20.604-9.225 20.604-20.604-.001-11.379-9.226-20.604-20.605-20.604z" fill="#ffeda1"></path><path d="m282.177 284.33c0 11.383-9.22 20.604-20.604 20.604l-78.809 10.302-15.453-2.019 63.356-8.283c11.384 0 20.604-9.22 20.604-20.604 0-5.687-2.308-10.838-6.037-14.567-3.719-3.729-8.87-6.037-14.567-6.037h30.905c5.697 0 10.848 2.308 14.567 6.037 3.73 3.729 6.038 8.88 6.038 14.567z" fill="#f2cd70"></path><path d="m179.162 191.614h-23.694c11.675 12.534 11.675 24.553 0 36.056l25.844 8.092 28.755-8.092v-5.151c0-17.068-13.836-30.905-30.905-30.905z" fill="#ffeda1"></path><path d="m210.064 222.519v5.151h-30.905v-5.151c0-14.227-9.611-26.208-22.684-29.783-.319-.371-.659-.752-1.01-1.123h23.694c17.07.001 30.905 13.836 30.905 30.906z" fill="#f2cd70"></path><path d="m228.096 227.67h-90.656c-9.957 0-18.028 8.071-18.028 18.028 0 9.957 8.071 18.028 18.028 18.028l45.328 10.302 45.328-10.302c9.957 0 18.028-8.071 18.028-18.028 0-9.956-8.072-18.028-18.028-18.028z" fill="#ffeda1"></path><path d="m246.12 245.698c0 9.952-8.066 18.028-18.028 18.028h-30.905c9.962 0 18.028-8.077 18.028-18.028 0-4.976-2.019-9.478-5.274-12.743-1.556-1.556-3.389-2.823-5.429-3.719-2.236-1.01-4.718-1.566-7.325-1.566h30.905c4.976 0 9.488 2.019 12.754 5.285 3.255 3.266 5.274 7.767 5.274 12.743z" fill="#f2cd70"></path><path d="m291.452 304.934h-217.369c-8.534 0-15.453 6.918-15.453 15.453v25.755h248.274v-25.755c0-8.535-6.918-15.453-15.452-15.453z" fill="#e0e0e0"></path><path d="m306.901 320.386v25.755h-30.905v-25.755c0-8.53-6.912-15.453-15.453-15.453h30.905c8.541.001 15.453 6.923 15.453 15.453z" fill="#bfbfbf"></path><path d="m308.965 512h-252.395c-22.758 0-41.207-18.449-41.207-41.207v-93.746c0-22.758 18.449-41.207 41.207-41.207h252.394c22.758 0 41.207 18.449 41.207 41.207v93.746c.001 22.758-18.448 41.207-41.206 41.207z" fill="#ffb8b8"></path><g fill="#ef9595"><path d="m350.169 377.046v93.746c0 22.757-18.45 41.207-41.207 41.207h-30.905c22.757 0 41.207-18.451 41.207-41.207v-93.746c0-12.311-5.398-23.364-13.969-30.905-7.252-6.418-16.792-10.302-27.238-10.302h30.905c22.756 0 41.207 18.451 41.207 41.207z"></path><path d="m182.768 460.491c-20.198 0-36.571-16.374-36.571-36.571 0-20.198 16.374-36.571 36.571-36.571 20.198 0 36.571 16.374 36.571 36.571 0 20.197-16.374 36.571-36.571 36.571z"></path><path d="m250.76 459.976c-4.268 0-7.726-3.459-7.726-7.726v-56.66c0-4.268 3.459-7.726 7.726-7.726 4.268 0 7.726 3.459 7.726 7.726v56.66c0 4.267-3.459 7.726-7.726 7.726z"></path><path d="m281.665 449.674c-4.268 0-7.726-3.459-7.726-7.726v-36.056c0-4.268 3.459-7.726 7.726-7.726s7.726 3.459 7.726 7.726v36.056c0 4.267-3.458 7.726-7.726 7.726z"></path><path d="m114.801 459.976c-4.268 0-7.726-3.459-7.726-7.726v-56.66c0-4.268 3.459-7.726 7.726-7.726s7.726 3.459 7.726 7.726v56.66c0 4.267-3.459 7.726-7.726 7.726z"></path><path d="m83.895 449.674c-4.268 0-7.726-3.459-7.726-7.726v-36.056c0-4.268 3.459-7.726 7.726-7.726 4.268 0 7.726 3.459 7.726 7.726v36.056c.001 4.267-3.458 7.726-7.726 7.726z"></path></g></svg>