<svg xmlns="http://www.w3.org/2000/svg" xmlns:xlink="http://www.w3.org/1999/xlink" id="Capa_1" x="0px" y="0px" viewBox="0 0 512.002 512.002" style="enable-background:new 0 0 512.002 512.002;" xml:space="preserve" width="512" height="512"><g>	<g>		<path style="fill:#FDE4E4;" d="M166.001,0c-90.901,0-166,75.099-166,166v230.099C0.001,459.401,52.6,512,115.903,512    c18.296,0,35.698-5.4,50.098-14.399c27.001-16.8,45-46.501,45-80.7c0-20.101,9.602-40.6,26.1-52.901    c50.702-38.099,81.002-55.199,89.399-89.7c2.999-9,4.501-18.6,4.501-28.2V166C331.001,75.099,256.902,0,166.001,0z"></path>	</g>	<path style="fill:#FCCED3;" d="M331.001,166v80.099c0,9.6-1.501,19.2-4.501,28.2c-8.397,34.501-38.698,51.601-89.399,89.7   c-16.498,12.301-26.1,32.8-26.1,52.901c0,34.199-17.999,63.9-45,80.7V0C256.902,0,331.001,75.099,331.001,166z"></path>	<g>		<path style="fill:#FCCED3;" d="M271.001,166v51c0,29.099-13.799,56.999-36.899,74.399L201.098,316    c-14.399,10.8-26.396,24.901-35.098,40.8c-4.2,7.5-7.5,15.3-9.902,23.401c-2.098,7.8-10.496,12.599-18.596,10.199    c-7.8-2.399-12.301-10.8-9.902-18.6c7.2-24.6,20.698-46.8,38.401-65.099c5.398-5.099,11.1-10.201,17.102-14.7l32.399-24.3    c16.198-12.301,25.499-30.901,25.499-50.7v-51c0-41.4-33.6-75-75-75s-75,33.6-75,75v17.701c17.402,5.999,30,22.798,30,42.299    s-12.598,36.301-30,42.299v37.8c0,8.101-6.599,15-15,15s-15-6.899-15-15V256c0-8.401,6.599-15,15-15s15-6.599,15-15    s-6.599-15-15-15s-15-6.599-15-15v-30c0-57.9,47.102-105,105-105S271.001,108.1,271.001,166z"></path>	</g>	<path style="fill:#FAAAAA;" d="M271.001,166v51c0,29.099-13.799,56.999-36.899,74.399L201.098,316   c-14.399,10.8-26.396,24.901-35.098,40.8V306.7c5.398-5.099,11.1-10.201,17.102-14.7l32.399-24.3   c16.198-12.301,25.499-30.901,25.499-50.7v-51c0-41.4-33.6-75-75-75V61C223.899,61,271.001,108.1,271.001,166z"></path>	<path style="fill:#E0F4FF;" d="M328.298,334.6l-75.297-17.999l-75.901-50.7c-33.3-21.601-38.998-69.6-9.899-98.701   c13.799-13.499,32.699-20.4,51.599-18.6c19.2,2.1,36.599,12.301,47.102,28.5l50.698,75.901L328.298,334.6z"></path>	<path style="fill:#BBDCFF;" d="M328.298,334.6l-75.297-17.999l-75.901-50.7c-33.3-21.601-38.998-69.6-9.899-98.701L327.101,327.1   L328.298,334.6z"></path>	<path style="fill:#B9B6EC;" d="M507.5,443.899L316.601,253.001l-63.6,63.6L443.9,507.499c5.698,5.7,15,6.301,21.299,0L507.5,465.2   C513.502,459.2,513.502,449.9,507.5,443.899z"></path>	<path style="fill:#A19CE4;" d="M486.501,486.501l-21.302,20.999c-6.299,6.301-15.601,5.7-21.299,0L253.001,316.601l31.798-31.8   L486.501,486.501z"></path></g></svg>