<svg xmlns="http://www.w3.org/2000/svg" id="Capa_1" height="512" viewBox="0 0 502.139 502.139" width="512"><g id="XMLID_121_"><path id="XMLID_3103_" d="m209.109 16.028 20 47.78-20 41.59-107.36 26.86c-42.64 8.53-82.42-24.16-82.42-67.73v-19.83z" fill="#a34f3e"></path><path id="XMLID_3104_" d="m482.809 97.998-97.93-16.78c-24.68-4.14-64.35-5.38-88.18 2.26l-87.59 21.92v-89.37l100.65-15.21c18.43-2.78 37.23 1.58 52.56 12.2z" fill="#883f2e"></path><path id="XMLID_3740_" d="m142.809 416.258-11.984 39.174-37.826 26.926-26.16-19.79 42.18-56.02z" fill="#c86e59"></path><path id="XMLID_3749_" d="m160.919 446.679-41.77 55.46-26.15-19.781 49.81-66.1z" fill="#a34f3e"></path><path id="XMLID_3742_" d="m369.299 115.659-117.765 191.379-116.545 119.59-25.97-20.08 213.34-283.26z" fill="#d68778"></path><path id="XMLID_3752_" d="m374.679 162.868-213.75 283.811h-.01l-25.93-20.051 213.6-283.489 20.71-27.48 1.48-.241z" fill="#c86e59"></path><path id="XMLID_3744_" d="m380.779 100.418-12.727 33.162-19.463 9.559-26.23-19.851z" fill="#ffeb95"></path><path id="XMLID_3747_" d="m380.779 100.418-6.1 62.45-26.09-19.729z" fill="#ffd396"></path></g></svg>