<svg xmlns="http://www.w3.org/2000/svg" id="Capa_1" height="512" viewBox="0 0 512.609 512.609" width="512"><g><g><g><path d="m114.402 110.336h-20.322l-15.79-15.792c-16.978-16.977-44.601-16.974-61.578.001-16.978 16.977-16.978 44.602 0 61.578 8.489 8.489 19.639 12.733 30.789 12.733 11.151 0 22.301-4.244 30.79-12.733l15.789-15.789h20.323l8.919-15zm-57.324 24.576c-5.28 5.28-13.872 5.282-19.154 0-5.281-5.281-5.281-13.873 0-19.153 2.641-2.641 6.109-3.961 9.578-3.961 3.468 0 6.936 1.32 9.577 3.96l9.577 9.578z" fill="#ff6a6d"></path></g></g><path d="m114.402 110.336v160.184l29.911 23.688v-174.797z" fill="#dae3f6"></path><g><g><path d="m160.102 12.733c-16.979-16.979-44.602-16.977-61.578 0-16.978 16.977-16.978 44.602 0 61.578l15.878 15.79v20.235l14.955 10.396 14.955-10.396v-20.235l15.789-15.79c16.979-16.976 16.979-44.601.001-61.578zm-40.366 21.212c2.641-2.641 6.109-3.961 9.577-3.961 3.469 0 6.937 1.32 9.578 3.961 2.558 2.558 3.967 5.959 3.967 9.578 0 3.617-1.408 7.018-3.967 9.577l-9.577 9.577-9.578-9.577c-5.281-5.281-5.281-13.874 0-19.155z" fill="#ec2176"></path></g></g><path d="m283.369 110.336h-168.967v29.999h161.944z" fill="#ebf3fe"></path><g><g><g><path d="m114.402 299.829c-3.878-11.484-14.452-20.456-27.244-20.456-16.045 0-29.052 13.007-29.052 29.052v19.499c0 30.136 24.43 54.566 54.566 54.566h2.496c4.119 49.336 35.04 92.686 81.146 112.393 27.52 11.762 56.648 17.727 86.576 17.727.16 0 .319-.006.479-.006l28.356-163.854-28.356-147.702-88.457 4.038c-44.385 0-80.51 50.358-80.51 94.743z" fill="#ffd4a1"></path></g><g><path d="m479.58 279.373c-14.08 0-25.913 13.2-28.578 20.456 0-44.385-36.173-94.746-80.558-94.746l-87.074-4.035v311.556c29.759-.063 58.724-6.021 86.096-17.72 46.106-19.707 77.026-63.057 81.146-112.393h3.455c30.136 0 54.566-24.43 54.566-54.566v-19.499c-.001-16.046-13.008-29.053-29.053-29.053z" fill="#ffc490"></path></g><g><g><path d="m227.512 294.208h29.999v45.227h-29.999z" fill="#4f5f73"></path></g><g><path d="m309.227 294.208h29.999v45.227h-29.999z" fill="#3d4959"></path></g></g></g><path d="m282.889 110.336c-92.75 0-168.487 75.458-168.487 168.208v21.285c0-44.385 36.125-81.444 80.51-81.444h88.457l9.13-31.281-9.13-76.761c-.16-.001-.319-.007-.48-.007z" fill="#4f5f73"></path><path d="m451.001 299.829v-21.285c0-92.59-75.102-167.941-167.632-168.201v108.043h87.074c44.385-.001 80.558 37.058 80.558 81.443z" fill="#3d4959"></path><g><path d="m240.018 395.457v29.999h43.351l21.823-14.999-21.823-15z" fill="#ffc490"></path><path d="m326.244 377.071v7.096c0 6.225-5.064 11.29-11.29 11.29h-31.586v29.999h31.586c22.767 0 41.288-18.522 41.288-41.288v-7.096h-29.998z" fill="#ffab82"></path></g></g></g></svg>