<svg xmlns="http://www.w3.org/2000/svg" id="Layer_1" height="33" viewBox="0 0 33 33" width="33"><g><path d="m29.994 25.461c-.742-.836-3.069-1.992-4.387-2.641-2.854-1.488-5.601-2.506-5.601-2.506h-3.506-3.507s-2.747 1.018-5.602 2.506c-1.316.648-3.644 1.805-4.386 2.641-.458.516-.825 1.25-.821 2.273.007 1.539 5.389 4.766 14.316 4.766s14.309-3.227 14.315-4.766c.004-1.023-.363-1.757-.821-2.273z" fill="#58595b"></path><path d="m20.024 18.146h-3.524-3.524s-.099 1.564-.546 2.416l1.628 2.709 2.442.666 2.442-.666 1.628-2.709c-.447-.851-.546-2.416-.546-2.416z" fill="#edbf98"></path><path d="m10.517 9.759s-1.428-.25-1.49 1.187c-.063 1.434.562 3.429 2.059 3.367l.699.002c-.02-.813-.821-3.347-1.268-4.556z" fill="#edbf98"></path><path d="m22.483 9.759s1.429-.25 1.49 1.187c.063 1.434-.562 3.429-2.059 3.367l-.699.002c.02-.813.821-3.347 1.268-4.556z" fill="#edbf98"></path><path d="m16.5 4.001s-6.106-.447-6.255 4.07c0 0 .918 7.797 1.166 8.543.248.745 1.764 2.786 2.875 3.45.595.354.668.963 2.214.963s1.619-.609 2.214-.963c1.111-.664 2.627-2.705 2.875-3.45.248-.746 1.166-8.543 1.166-8.543-.15-4.517-6.255-4.07-6.255-4.07z" fill="#f4cda7"></path><path d="m17.245 20.965c.849-.164.988-.615 1.469-.9 1.111-.664 2.627-2.705 2.875-3.45.123-.373.416-2.507.676-4.55 0 0-1.027 3.427-1.521 4.451-.493 1.021-1.958 2.875-3.499 4.449z" fill="#e8be9c"></path><path d="m18.714 20.064c-.595.354-.668.963-2.214.963s-1.619-.609-2.214-.963c-.143-.086-.291-.193-.442-.316.472.545.989 1.045 1.442 1.316.595.354.668.963 2.214.963s1.619-.609 2.214-.963c.252-.15.524-.377.798-.637-.22-.484-.343-1.131-.411-1.613-.459.52-.954.991-1.387 1.25z" fill="#dba782"></path><path d="m16.091.602c-3.715.377-4.351 1.652-4.326 2.438 0 0-1.777.196-2.076 1.714-.473 2.25.877 7.759.877 7.759h.809c-.143-.792-.345-1.688-.269-2.906.61.081.912.136.912.136-.017-.573 0-1.493.022-1.926.023-.461.068-1.983 1.593-1.606 1.684.415 2.533.444 2.887.444s1.204-.029 2.888-.444c1.524-.377 1.569 1.146 1.594 1.606.021.433.038 1.353.021 1.926 0 0 .275-.042.872-.13.075 1.216-.126 2.11-.269 2.9h.809s.295-1.205.561-2.716c.339-1.721.258-3.084.194-3.387 0 0 .438.494.592 2.203 0 0 1.17-3.601-.273-5.97-.992-1.627-3.459-2.444-7.418-2.041z" fill="#403b35"></path><path d="m16.5 23.938-.989.098v8.443c.328.01.65.021.989.021s.661-.012.989-.021v-8.443z" fill="#414042"></path><g fill="#e6e7e8"><path d="m16.5 23.938s1.9.615 2.174 2.176c0 0 2.815-3.586 2.958-5.148 0 0-.08-.188-.502-.359s-.618-.178-.618-.178-1.132 1.397-4.012 3.509z"></path><path d="m16.49 23.938s-1.9.615-2.174 2.176c0 0-2.815-3.586-2.958-5.148 0 0 .08-.188.502-.359s.618-.178.618-.178 1.132 1.397 4.012 3.509z"></path><circle cx="16.5" cy="26.973" r=".599"></circle><circle cx="16.5" cy="30.391" r=".599"></circle></g><path d="m16.908 2.117s4.782-.976 5.993 2.927c0 0-1.686-3.035-6.544-2.111 0 0 .143-.524.551-.816z" fill="#544e47"></path></g></svg>